<svg xmlns="http://www.w3.org/2000/svg" width="188" height="48" viewBox="0 0 188 48">
    <g fill="none" fill-rule="evenodd">
        <g fill-rule="nonzero">
            <g>
                <g>
                    <g>
                        <path fill="#FFF" d="M85.404 15c3.965.04 5.927 2.033 5.927 6.058l-.117 20.964C91.135 46.007 89.172 48 85.207 48h-2.59c-3.965-.04-5.928-2.033-5.889-6.058l.118-20.964c.038-3.934 1.914-5.926 5.7-5.978h2.858zm70.773 0c3.965.04 5.928 2.033 5.928 6.058l-.118 20.963c-.04 4.026-2.002 6.018-6.006 5.978h-2.591c-3.965-.04-5.928-2.032-5.889-6.057l.118-20.964c.039-3.934 1.914-5.926 5.7-5.978h2.858zm-95.023.568l7.549.04c3.89.038 5.816 1.99 5.777 5.935l-.038 8.434c-.038 3.854-1.878 5.806-5.592 5.857h-2.997l-.039 11.597L61 47.392l.154-31.824zm38.545 0l-.154 27.412 5.267.039-.038 4.412-10.072-.039.153-31.824H99.7zm3.99 0l5.135.04 2.728 13.549 3.05-13.51 4.814.039-5.456 20.421-.08 11.324-5.016-.039.04-10.816-5.215-21.008zm18.136 0l11.072.078-.04 4.413-5.962-.04-.041 9.177 5.718.039-.04 4.412-5.719-.039-.08 13.823-5.07-.039.162-31.824zm18.316 0l-.154 27.412 5.267.039-.038 4.412-10.072-.039.153-31.824h4.844zm24.21 0l4.95.04 2.16 22.658 2.594-22.62 4.713.04 2.357 22.58 2.397-22.62 4.478.04-4.046 31.745-5.775-.039-2.082-19.149-2.2 19.149-5.813-.039-3.732-31.785zm-8.998 3.776h-1.02c-1.296 0-1.885.598-1.885 1.873l-.118 20.485c0 1.316.589 1.913 1.845 1.913h1.02c1.218 0 1.846-.597 1.846-1.873l.118-20.485c.039-1.315-.55-1.913-1.806-1.913zm-70.774-.04h-1.02c-1.296 0-1.885.598-1.885 1.874l-.117 20.485c0 1.315.588 1.913 1.845 1.913h1.02c1.217 0 1.845-.598 1.845-1.873l.118-20.486c0-1.275-.589-1.873-1.806-1.913zm-16.646.599h-1.965l-.077 11.714h1.965c1.194 0 1.81-.586 1.81-1.835l.038-8.005c0-1.289-.577-1.874-1.771-1.874z" transform="translate(-155 -44) translate(155 44)"/>
                        <path fill="#6BDCE0" d="M20.833 0l31.744 14.107c.87.398 1.423 1.235 1.423 2.191V47.5h-4.744V17.852L20.833 5.22V0zM0 13.987l31.744 14.107c.87.398 1.423 1.235 1.423 2.191V47.5h-4.704V31.84L0 19.206v-5.22zm10.634-6.974L42.378 21.12c.87.398 1.423 1.235 1.423 2.192V47.5h-4.744V24.866L10.634 12.234v-5.22z" transform="translate(-155 -44) translate(155 44)"/>
                    </g>
                </g>
            </g>
        </g>
    </g>
</svg>
