<svg xmlns="http://www.w3.org/2000/svg" width="1840" height="3201" viewBox="0 0 1840 3201">
    <defs>
        <linearGradient id="p37w763c3a" x1="148.728%" x2="115.608%" y1="23.029%" y2="-11.661%">
            <stop offset="0%" stop-color="#586FED"/>
            <stop offset="100%" stop-color="#4DEDFF"/>
        </linearGradient>
        <linearGradient id="49ahfgfusb" x1="72.34%" x2="35.14%" y1="121.561%" y2="2.602%">
            <stop offset="0%" stop-color="#586FED"/>
            <stop offset="100%" stop-color="#4DEDFF"/>
        </linearGradient>
        <linearGradient id="6fuj77u8ic" x1="56.542%" x2="42.825%" y1="69.63%" y2="28.148%">
            <stop offset="0%" stop-color="#586FED"/>
            <stop offset="100%" stop-color="#4DEDFF"/>
        </linearGradient>
        <linearGradient id="br1ngbetmd" x1="74.757%" x2="18.123%" y1="57.897%" y2="39.763%">
            <stop offset="0%" stop-color="#586FED"/>
            <stop offset="100%" stop-color="#4DEDFF"/>
        </linearGradient>
    </defs>
    <g fill="none" fill-rule="evenodd">
        <g>
            <g>
                <path stroke="#6BDCE0" stroke-linecap="square" d="M578.243 2696.035L1687.831 2027.439M417.592 518.062L1278.72.503" opacity=".149" transform="translate(200 -606) translate(-200 606)"/>
                <path stroke="#6BDCE0" stroke-linecap="square" d="M518.373 1452.486L1627.961 783.889" opacity=".161" transform="translate(200 -606) translate(-200 606)"/>
                <g fill-rule="nonzero" opacity=".497">
                    <g>
                        <g fill="url(#p37w763c3a)" opacity=".2" transform="translate(200 -606) translate(-200 606) translate(1005.813 1.007) translate(0 327.25)">
                            <path d="M543.544 161.603L269.315 321.162 0.359 161.603 274.588 0.252z"/>
                        </g>
                        <g fill="url(#49ahfgfusb)" opacity=".1" transform="translate(200 -606) translate(-200 606) translate(1005.813 1.007) translate(0 164.128)">
                            <path d="M268.945 483.513L0.352 323.732 0.352 0.579 268.945 160.36z"/>
                        </g>
                        <g fill="url(#6fuj77u8ic)" opacity=".1" transform="translate(200 -606) translate(-200 606) translate(1005.813 1.007) translate(268.416 162.115)">
                            <path d="M0.692 485.525L0.692 162.223 278.937 0.571 278.937 325.67z"/>
                        </g>
                        <g fill="url(#br1ngbetmd)" opacity=".1" transform="translate(200 -606) translate(-200 606) translate(1005.813 1.007)">
                            <path d="M543.544 160.33L269.315 321.681 0.359 162.122 274.588 0.771z"/>
                        </g>
                    </g>
                    <g>
                        <g fill="url(#p37w763c3a)" opacity=".2" transform="translate(200 -606) translate(-200 606) translate(1005.813 1.007) translate(286.377 173.19) translate(0 327.25)">
                            <path d="M543.544 161.603L269.315 321.162 0.359 161.603 274.588 0.252z"/>
                        </g>
                        <g fill="url(#49ahfgfusb)" opacity=".1" transform="translate(200 -606) translate(-200 606) translate(1005.813 1.007) translate(286.377 173.19) translate(0 164.128)">
                            <path d="M268.945 483.513L0.352 323.732 0.352 0.579 268.945 160.36z"/>
                        </g>
                        <g fill="url(#6fuj77u8ic)" opacity=".1" transform="translate(200 -606) translate(-200 606) translate(1005.813 1.007) translate(286.377 173.19) translate(268.416 162.115)">
                            <path d="M0.692 485.525L0.692 162.223 278.937 0.571 278.937 325.67z"/>
                        </g>
                        <g fill="url(#br1ngbetmd)" opacity=".1" transform="translate(200 -606) translate(-200 606) translate(1005.813 1.007) translate(286.377 173.19)">
                            <path d="M543.544 160.33L269.315 321.681 0.359 162.122 274.588 0.771z"/>
                        </g>
                    </g>
                    <g>
                        <g fill="url(#p37w763c3a)" opacity=".2" transform="translate(200 -606) translate(-200 606) translate(1005.813 1.007) translate(0 344.368) translate(0 327.25)">
                            <path d="M543.544 161.603L269.315 321.162 0.359 161.603 274.588 0.252z"/>
                        </g>
                        <g fill="url(#49ahfgfusb)" opacity=".1" transform="translate(200 -606) translate(-200 606) translate(1005.813 1.007) translate(0 344.368) translate(0 164.128)">
                            <path d="M268.945 483.513L0.352 323.732 0.352 0.579 268.945 160.36z"/>
                        </g>
                        <g fill="url(#6fuj77u8ic)" opacity=".1" transform="translate(200 -606) translate(-200 606) translate(1005.813 1.007) translate(0 344.368) translate(268.416 162.115)">
                            <path d="M0.692 485.525L0.692 162.223 278.937 0.571 278.937 325.67z"/>
                        </g>
                        <g fill="url(#br1ngbetmd)" opacity=".1" transform="translate(200 -606) translate(-200 606) translate(1005.813 1.007) translate(0 344.368)">
                            <path d="M543.544 160.33L269.315 321.681 0.359 162.122 274.588 0.771z"/>
                        </g>
                    </g>
                </g>
                <g fill-rule="nonzero" opacity=".497">
                    <g>
                        <g fill="url(#p37w763c3a)" opacity=".2" transform="translate(200 -606) translate(-200 606) translate(1005.813 1402.643) translate(0 327.25)">
                            <path d="M543.544 161.603L269.315 321.162 0.359 161.603 274.588 0.252z"/>
                        </g>
                        <g fill="url(#49ahfgfusb)" opacity=".1" transform="translate(200 -606) translate(-200 606) translate(1005.813 1402.643) translate(0 164.128)">
                            <path d="M268.945 483.513L0.352 323.732 0.352 0.579 268.945 160.36z"/>
                        </g>
                        <g fill="url(#6fuj77u8ic)" opacity=".1" transform="translate(200 -606) translate(-200 606) translate(1005.813 1402.643) translate(268.416 162.115)">
                            <path d="M0.692 485.525L0.692 162.223 278.937 0.571 278.937 325.67z"/>
                        </g>
                        <g fill="url(#br1ngbetmd)" opacity=".1" transform="translate(200 -606) translate(-200 606) translate(1005.813 1402.643)">
                            <path d="M543.544 160.33L269.315 321.681 0.359 162.122 274.588 0.771z"/>
                        </g>
                    </g>
                    <g>
                        <g fill="url(#p37w763c3a)" opacity=".2" transform="translate(200 -606) translate(-200 606) translate(1005.813 1402.643) translate(286.377 173.19) translate(0 327.25)">
                            <path d="M543.544 161.603L269.315 321.162 0.359 161.603 274.588 0.252z"/>
                        </g>
                        <g fill="url(#49ahfgfusb)" opacity=".1" transform="translate(200 -606) translate(-200 606) translate(1005.813 1402.643) translate(286.377 173.19) translate(0 164.128)">
                            <path d="M268.945 483.513L0.352 323.732 0.352 0.579 268.945 160.36z"/>
                        </g>
                        <g fill="url(#6fuj77u8ic)" opacity=".1" transform="translate(200 -606) translate(-200 606) translate(1005.813 1402.643) translate(286.377 173.19) translate(268.416 162.115)">
                            <path d="M0.692 485.525L0.692 162.223 278.937 0.571 278.937 325.67z"/>
                        </g>
                        <g fill="url(#br1ngbetmd)" opacity=".1" transform="translate(200 -606) translate(-200 606) translate(1005.813 1402.643) translate(286.377 173.19)">
                            <path d="M543.544 160.33L269.315 321.681 0.359 162.122 274.588 0.771z"/>
                        </g>
                    </g>
                    <g>
                        <g fill="url(#p37w763c3a)" opacity=".2" transform="translate(200 -606) translate(-200 606) translate(1005.813 1402.643) translate(0 344.368) translate(0 327.25)">
                            <path d="M543.544 161.603L269.315 321.162 0.359 161.603 274.588 0.252z"/>
                        </g>
                        <g fill="url(#49ahfgfusb)" opacity=".1" transform="translate(200 -606) translate(-200 606) translate(1005.813 1402.643) translate(0 344.368) translate(0 164.128)">
                            <path d="M268.945 483.513L0.352 323.732 0.352 0.579 268.945 160.36z"/>
                        </g>
                        <g fill="url(#6fuj77u8ic)" opacity=".1" transform="translate(200 -606) translate(-200 606) translate(1005.813 1402.643) translate(0 344.368) translate(268.416 162.115)">
                            <path d="M0.692 485.525L0.692 162.223 278.937 0.571 278.937 325.67z"/>
                        </g>
                        <g fill="url(#br1ngbetmd)" opacity=".1" transform="translate(200 -606) translate(-200 606) translate(1005.813 1402.643) translate(0 344.368)">
                            <path d="M543.544 160.33L269.315 321.681 0.359 162.122 274.588 0.771z"/>
                        </g>
                    </g>
                </g>
                <g fill-rule="nonzero" opacity=".497">
                    <g>
                        <g fill="url(#p37w763c3a)" opacity=".2" transform="translate(200 -606) translate(-200 606) translate(0 714.915) translate(0 327.25)">
                            <path d="M543.544 161.603L269.315 321.162 0.359 161.603 274.588 0.252z"/>
                        </g>
                        <g fill="url(#49ahfgfusb)" opacity=".1" transform="translate(200 -606) translate(-200 606) translate(0 714.915) translate(0 164.128)">
                            <path d="M268.945 483.513L0.352 323.732 0.352 0.579 268.945 160.36z"/>
                        </g>
                        <g fill="url(#6fuj77u8ic)" opacity=".1" transform="translate(200 -606) translate(-200 606) translate(0 714.915) translate(268.416 162.115)">
                            <path d="M0.692 485.525L0.692 162.223 278.937 0.571 278.937 325.67z"/>
                        </g>
                        <g fill="url(#br1ngbetmd)" opacity=".1" transform="translate(200 -606) translate(-200 606) translate(0 714.915)">
                            <path d="M543.544 160.33L269.315 321.681 0.359 162.122 274.588 0.771z"/>
                        </g>
                    </g>
                    <g>
                        <g fill="url(#p37w763c3a)" opacity=".2" transform="translate(200 -606) translate(-200 606) translate(0 714.915) translate(286.377 173.19) translate(0 327.25)">
                            <path d="M543.544 161.603L269.315 321.162 0.359 161.603 274.588 0.252z"/>
                        </g>
                        <g fill="url(#49ahfgfusb)" opacity=".1" transform="translate(200 -606) translate(-200 606) translate(0 714.915) translate(286.377 173.19) translate(0 164.128)">
                            <path d="M268.945 483.513L0.352 323.732 0.352 0.579 268.945 160.36z"/>
                        </g>
                        <g fill="url(#6fuj77u8ic)" opacity=".1" transform="translate(200 -606) translate(-200 606) translate(0 714.915) translate(286.377 173.19) translate(268.416 162.115)">
                            <path d="M0.692 485.525L0.692 162.223 278.937 0.571 278.937 325.67z"/>
                        </g>
                        <g fill="url(#br1ngbetmd)" opacity=".1" transform="translate(200 -606) translate(-200 606) translate(0 714.915) translate(286.377 173.19)">
                            <path d="M543.544 160.33L269.315 321.681 0.359 162.122 274.588 0.771z"/>
                        </g>
                    </g>
                    <g>
                        <g fill="url(#p37w763c3a)" opacity=".2" transform="translate(200 -606) translate(-200 606) translate(0 714.915) translate(0 344.368) translate(0 327.25)">
                            <path d="M543.544 161.603L269.315 321.162 0.359 161.603 274.588 0.252z"/>
                        </g>
                        <g fill="url(#49ahfgfusb)" opacity=".1" transform="translate(200 -606) translate(-200 606) translate(0 714.915) translate(0 344.368) translate(0 164.128)">
                            <path d="M268.945 483.513L0.352 323.732 0.352 0.579 268.945 160.36z"/>
                        </g>
                        <g fill="url(#6fuj77u8ic)" opacity=".1" transform="translate(200 -606) translate(-200 606) translate(0 714.915) translate(0 344.368) translate(268.416 162.115)">
                            <path d="M0.692 485.525L0.692 162.223 278.937 0.571 278.937 325.67z"/>
                        </g>
                        <g fill="url(#br1ngbetmd)" opacity=".1" transform="translate(200 -606) translate(-200 606) translate(0 714.915) translate(0 344.368)">
                            <path d="M543.544 160.33L269.315 321.681 0.359 162.122 274.588 0.771z"/>
                        </g>
                    </g>
                </g>
                <g fill-rule="nonzero" opacity=".497">
                    <g>
                        <g fill="url(#p37w763c3a)" opacity=".2" transform="translate(200 -606) translate(-200 606) translate(0 2207.174) translate(0 327.25)">
                            <path d="M543.544 161.603L269.315 321.162 0.359 161.603 274.588 0.252z"/>
                        </g>
                        <g fill="url(#49ahfgfusb)" opacity=".1" transform="translate(200 -606) translate(-200 606) translate(0 2207.174) translate(0 164.128)">
                            <path d="M268.945 483.513L0.352 323.732 0.352 0.579 268.945 160.36z"/>
                        </g>
                        <g fill="url(#6fuj77u8ic)" opacity=".1" transform="translate(200 -606) translate(-200 606) translate(0 2207.174) translate(268.416 162.115)">
                            <path d="M0.692 485.525L0.692 162.223 278.937 0.571 278.937 325.67z"/>
                        </g>
                        <g fill="url(#br1ngbetmd)" opacity=".1" transform="translate(200 -606) translate(-200 606) translate(0 2207.174)">
                            <path d="M543.544 160.33L269.315 321.681 0.359 162.122 274.588 0.771z"/>
                        </g>
                    </g>
                    <g>
                        <g fill="url(#p37w763c3a)" opacity=".2" transform="translate(200 -606) translate(-200 606) translate(0 2207.174) translate(286.377 173.19) translate(0 327.25)">
                            <path d="M543.544 161.603L269.315 321.162 0.359 161.603 274.588 0.252z"/>
                        </g>
                        <g fill="url(#49ahfgfusb)" opacity=".1" transform="translate(200 -606) translate(-200 606) translate(0 2207.174) translate(286.377 173.19) translate(0 164.128)">
                            <path d="M268.945 483.513L0.352 323.732 0.352 0.579 268.945 160.36z"/>
                        </g>
                        <g fill="url(#6fuj77u8ic)" opacity=".1" transform="translate(200 -606) translate(-200 606) translate(0 2207.174) translate(286.377 173.19) translate(268.416 162.115)">
                            <path d="M0.692 485.525L0.692 162.223 278.937 0.571 278.937 325.67z"/>
                        </g>
                        <g fill="url(#br1ngbetmd)" opacity=".1" transform="translate(200 -606) translate(-200 606) translate(0 2207.174) translate(286.377 173.19)">
                            <path d="M543.544 160.33L269.315 321.681 0.359 162.122 274.588 0.771z"/>
                        </g>
                    </g>
                    <g>
                        <g fill="url(#p37w763c3a)" opacity=".2" transform="translate(200 -606) translate(-200 606) translate(0 2207.174) translate(0 344.368) translate(0 327.25)">
                            <path d="M543.544 161.603L269.315 321.162 0.359 161.603 274.588 0.252z"/>
                        </g>
                        <g fill="url(#49ahfgfusb)" opacity=".1" transform="translate(200 -606) translate(-200 606) translate(0 2207.174) translate(0 344.368) translate(0 164.128)">
                            <path d="M268.945 483.513L0.352 323.732 0.352 0.579 268.945 160.36z"/>
                        </g>
                        <g fill="url(#6fuj77u8ic)" opacity=".1" transform="translate(200 -606) translate(-200 606) translate(0 2207.174) translate(0 344.368) translate(268.416 162.115)">
                            <path d="M0.692 485.525L0.692 162.223 278.937 0.571 278.937 325.67z"/>
                        </g>
                        <g fill="url(#br1ngbetmd)" opacity=".1" transform="translate(200 -606) translate(-200 606) translate(0 2207.174) translate(0 344.368)">
                            <path d="M543.544 160.33L269.315 321.681 0.359 162.122 274.588 0.771z"/>
                        </g>
                    </g>
                </g>
            </g>
        </g>
    </g>
</svg>
